<svg xmlns="http://www.w3.org/2000/svg" width="40.881" height="40.889"><path data-name="Контур 2265" d="M40.777 12.021a14.941 14.941 0 00-.95-4.96 10.474 10.474 0 00-5.983-5.983 14.979 14.979 0 00-4.96-.95C26.694.024 25.999 0 20.451 0s-6.249.024-8.43.12a14.945 14.945 0 00-4.96.95 9.977 9.977 0 00-3.627 2.365 10.067 10.067 0 00-2.356 3.618 14.981 14.981 0 00-.95 4.96C.024 14.2 0 14.9 0 20.449s.024 6.246.12 8.427a14.94 14.94 0 00.951 4.96 10.473 10.473 0 005.98 5.983 14.981 14.981 0 004.96.95c2.18.1 2.876.12 8.427.12s6.246-.024 8.427-.12a14.937 14.937 0 004.96-.95 10.459 10.459 0 005.983-5.983 14.991 14.991 0 00.95-4.96c.1-2.181.12-2.876.12-8.427s-.008-6.246-.1-8.427zm-3.683 16.695a11.207 11.207 0 01-.7 3.794 6.783 6.783 0 01-3.882 3.882 11.247 11.247 0 01-3.794.7c-2.157.1-2.8.12-8.259.12s-6.111-.024-8.259-.12a11.2 11.2 0 01-3.794-.7 6.292 6.292 0 01-2.355-1.526 6.357 6.357 0 01-1.526-2.348 11.249 11.249 0 01-.7-3.794c-.1-2.157-.12-2.8-.12-8.259s.024-6.111.12-8.259a11.2 11.2 0 01.7-3.794 6.215 6.215 0 011.537-2.349 6.347 6.347 0 012.349-1.526 11.255 11.255 0 013.794-.7c2.157-.1 2.8-.12 8.259-.12s6.111.024 8.259.12a11.207 11.207 0 013.794.7 6.287 6.287 0 012.348 1.525 6.356 6.356 0 011.526 2.349 11.253 11.253 0 01.7 3.794c.1 2.157.12 2.8.12 8.259s-.024 6.095-.12 8.251zm0 0" fill="#456072"/><path data-name="Контур 2266" d="M20.449 9.945a10.5 10.5 0 1010.5 10.5 10.506 10.506 0 00-10.5-10.5zm0 17.317a6.814 6.814 0 116.813-6.817 6.815 6.815 0 01-6.813 6.817zm0 0" fill="#456072"/><path data-name="Контур 2267" d="M33.82 9.529a2.452 2.452 0 11-2.454-2.454 2.452 2.452 0 012.454 2.454zm0 0" fill="#456072"/></svg>