<svg xmlns="http://www.w3.org/2000/svg" width="69.402" height="40.486"><path d="M57.591 23.216c-1.122-1.417-.8-2.047 0-3.314.014-.014 9.277-12.814 10.231-17.154h.006C68.3 1.163 67.828 0 65.535 0h-7.588a3.258 3.258 0 00-3.3 2.114s-3.863 9.248-9.329 15.243c-1.764 1.732-2.58 2.287-3.542 2.287-.474 0-1.212-.555-1.212-2.137V2.744c0-1.9-.541-2.744-2.14-2.744H26.492a1.816 1.816 0 00-1.932 1.709c0 1.8 2.733 2.212 3.016 7.273v10.98c0 2.406-.437 2.848-1.405 2.848-2.58 0-8.84-9.286-12.551-19.913C12.872.836 12.14 0 10.194 0H2.6C.437 0 0 1 0 2.117 0 4.089 2.58 13.9 12 26.851c6.275 8.843 15.113 13.635 23.152 13.635 4.832 0 5.422-1.064 5.422-2.895 0-8.45-.437-9.248 1.984-9.248 1.122 0 3.054.555 7.565 4.821 5.156 5.058 6 7.322 8.889 7.322H66.6c2.163 0 3.259-1.064 2.629-3.164-1.447-4.416-11.199-13.499-11.638-14.106z" fill="#456072"/></svg>